<?xml version="1.0" encoding="UTF-8" standalone="no"?>
<svg
   xmlns:dc="http://purl.org/dc/elements/1.1/"
   xmlns:cc="http://creativecommons.org/ns#"
   xmlns:rdf="http://www.w3.org/1999/02/22-rdf-syntax-ns#"
   xmlns:svg="http://www.w3.org/2000/svg"
   xmlns="http://www.w3.org/2000/svg"
   xmlns:sodipodi="http://sodipodi.sourceforge.net/DTD/sodipodi-0.dtd"
   xmlns:inkscape="http://www.inkscape.org/namespaces/inkscape"
   sodipodi:docname="Logo_vector.svg"
   inkscape:version="1.0 (6e3e5246a0, 2020-05-07)"
   id="svg8"
   version="1.1"
   viewBox="0 0 198 51.499999"
   height="51.5mm"
   width="198mm">
  <defs
     id="defs2" />
  <sodipodi:namedview
     inkscape:window-maximized="0"
     inkscape:window-y="34"
     inkscape:window-x="455"
     inkscape:window-height="1010"
     inkscape:window-width="1465"
     inkscape:pagecheckerboard="true"
     showgrid="false"
     inkscape:document-rotation="0"
     inkscape:current-layer="layer1"
     inkscape:document-units="mm"
     inkscape:cy="54.784344"
     inkscape:cx="320.2954"
     inkscape:zoom="1.4"
     inkscape:pageshadow="2"
     inkscape:pageopacity="0"
     borderopacity="1.0"
     bordercolor="#666666"
     pagecolor="#ffffff"
     id="base" />
  <metadata
     id="metadata5">
    <rdf:RDF>
      <cc:Work
         rdf:about="">
        <dc:format>image/svg+xml</dc:format>
        <dc:type
           rdf:resource="http://purl.org/dc/dcmitype/StillImage" />
        <dc:title></dc:title>
      </cc:Work>
    </rdf:RDF>
  </metadata>
  <g
     id="layer1"
     inkscape:groupmode="layer"
     inkscape:label="Capa 1">
    <path
       d="M 26.487023,-3.2093376e-5 H 14.838533 V 22.185267 l -0.145002,3.600881 q 0,1.788358 -1.377518,2.755037 -1.377519,0.96668 -3.5767153,0.96668 H 0 v 9.545962 q 7.0809286,0 10.971814,-0.09667 3.915053,-0.09667 6.331752,-0.435006 2.440866,-0.362505 3.866719,-1.015014 1.450019,-0.676675 2.537534,-1.860858 1.522521,-1.498353 2.150862,-3.21421 0.628342,-1.740023 0.628342,-4.108389 z"
       style="font-size:49.494px;line-height:1.25;font-family:'UTM Nokia';-inkscape-font-specification:'UTM Nokia';fill:#3c3faa;fill-opacity:1;stroke-width:0.265146"
       id="path859" />
    <path
       d="M 30.885415,-3.2093376e-5 V 38.908825 h 12.13183 V -3.2093376e-5 Z"
       style="font-size:49.494px;line-height:1.25;font-family:'UTM Nokia';-inkscape-font-specification:'UTM Nokia';fill:#3c3faa;fill-opacity:1;stroke-width:0.265146"
       id="path861" />
    <path
       d="M 78.687725,17.714373 H 61.263324 L 84.681139,38.908825 H 98.142154 L 82.26444,25.109473 V 24.89197 q 3.45588,0 5.751744,-0.676676 2.320031,-0.700843 3.69755,-2.175029 1.377519,-1.498354 2.030027,-3.915053 0.652509,-2.440866 0.652509,-5.993414 0,-3.552548 -0.821678,-5.8725792 Q 92.752915,3.9150206 91.012891,2.5616691 89.297035,1.1841505 86.566165,0.6041427 83.835295,-3.2093376e-5 79.726906,-3.2093376e-5 H 47.463972 V 38.908825 h 12.13183 V 9.7150987 h 19.236925 q 1.788358,0 3.117542,1.1116813 1.353352,1.111682 1.353352,2.851705 0,1.957527 -1.401686,2.996707 -1.377518,1.039181 -3.21421,1.039181 z"
       style="font-size:49.494px;line-height:1.25;font-family:'UTM Nokia';-inkscape-font-specification:'UTM Nokia';fill:#3c3faa;fill-opacity:1;stroke-width:0.265146"
       id="path863" />
    <path
       d="m 113.05319,29.846203 v -6.42842 h 28.66205 V 15.539344 H 113.05319 V 9.0142559 H 143.5761 V -3.2093376e-5 H 113.72986 101.4047 100.92136 V 38.908825 h 0.84584 11.96266 29.84624 v -9.062622 z"
       style="font-size:49.494px;line-height:1.25;font-family:'UTM Nokia';-inkscape-font-specification:'UTM Nokia';fill:#3c3faa;fill-opacity:1;stroke-width:0.265146"
       id="path865" />
    <path
       d="m 185.86833,24.40863 v 14.500195 h 12.13183 V -3.2093376e-5 H 185.86833 V 14.016823 H 159.93714 V -3.2093376e-5 H 147.80531 V 38.908825 h 12.13183 V 24.40863 Z"
       style="font-size:49.494px;line-height:1.25;font-family:'UTM Nokia';-inkscape-font-specification:'UTM Nokia';fill:#3c3faa;fill-opacity:1;stroke-width:0.265146"
       id="path867" />
    <path
       d="M 8.1788263,47.805554 Q 7.7950308,47.16163 6.835542,47.106193 6.652173,47.089136 6.370723,47.076343 6.0935373,47.063549 5.6841554,47.046492 5.2790379,47.029434 4.2299968,46.995319 3.4709345,46.969733 3.3131519,46.95694 q -0.051173,0 -0.1748402,0 -0.1833689,0 -0.1833689,0 -0.4179107,0 -0.6567168,-0.102346 -0.2345417,-0.10661 -0.2345417,-0.434968 0,-0.187634 0.072495,-0.298508 0.076759,-0.115138 0.2004265,-0.170576 0.1236675,-0.05544 0.2601281,-0.07249 0.140725,-0.02132 0.3155652,-0.02132 0.183369,0 5.2921139,0 v -1.48401 q -5.1684464,0 -6.4349717,0 -0.95096001,0 -1.3646063,0.53305 -0.4093819,0.533049 -0.4093819,1.599148 0,0.865672 0.29850763,1.30064 0.41791069,0.584222 1.38592827,0.639659 0.1918978,0.01706 0.4605547,0.02985 0.2729212,0.01279 0.5799576,0.02559 0.3070365,0.01279 1.5095958,0.05544 0.7718554,0.02559 0.9339024,0.03411 0.2729213,0 0.4605547,0.01706 0.1876333,0.01279 0.3624735,0.06823 0.1748402,0.05544 0.2814501,0.183369 0.1108742,0.127931 0.1108742,0.336887 0,0.183369 -0.081024,0.298507 -0.076759,0.110875 -0.2089553,0.170576 -0.1279318,0.05544 -0.2814501,0.07249 -0.1535182,0.01706 -0.3368871,0.01706 -0.183369,0 -5.29211393,0 v 1.484009 q 4.92537593,0 6.20042993,0 1.0916851,0 1.5863549,-0.49467 0.4946698,-0.498934 0.4946698,-1.611941 0,-0.793178 -0.2814501,-1.326227 z"
       style="font-size:8.73348px;line-height:1.25;font-family:'UTM Nokia';-inkscape-font-specification:'UTM Nokia';stroke-width:0.265186"
       id="path870" />
    <path
       d="m 9.1212577,49.464404 q 0,0.422175 0.093817,0.712154 0.098081,0.285714 0.3582091,0.520256 0.2388061,0.217484 0.5074632,0.336887 0.272921,0.119403 0.69936,0.17484 0.42644,0.05544 1.036248,0.0725 0.614073,0.01706 1.79531,0.01706 1.176973,0 1.795311,-0.01706 0.622601,-0.01706 1.044776,-0.0725 0.42644,-0.05544 0.70789,-0.17484 0.285714,-0.119403 0.511727,-0.336887 0.260128,-0.234542 0.353945,-0.520256 0.09808,-0.289979 0.09808,-0.712154 0,-0.993604 0,-2.349682 v -0.993604 q 0,-0.417911 -0.09808,-0.690832 -0.09382,-0.277185 -0.353945,-0.515992 -0.226013,-0.226012 -0.503198,-0.345416 -0.272922,-0.123667 -0.690832,-0.17484 -0.413647,-0.05544 -1.006398,-0.06823 -0.59275,-0.01279 -1.833689,-0.01279 -1.240939,0 -1.837954,0.01279 -0.592751,0.01279 -1.014926,0.06823 -0.422175,0.05117 -0.703625,0.17484 -0.2771858,0.119404 -0.5074632,0.345416 -0.260128,0.238807 -0.3582091,0.515992 -0.093817,0.272921 -0.093817,0.690832 z m 1.9317713,-3.044778 q 0,-0.196162 0.140725,-0.307037 0.144989,-0.115138 0.486141,-0.115138 3.432837,0 3.914714,0 0.366738,0 0.498934,0.08955 0.136461,0.08529 0.136461,0.332623 v 1.987208 0.788913 q 0,0.166311 -0.162047,0.277185 -0.162047,0.10661 -0.503199,0.10661 -3.402987,0 -3.884863,0 -0.366738,0 -0.498935,-0.08102 -0.127931,-0.08529 -0.127931,-0.302772 z"
       style="font-size:8.73348px;line-height:1.25;font-family:'UTM Nokia';-inkscape-font-specification:'UTM Nokia';stroke-width:0.265186"
       id="path872" />
    <path
       d="m 20.937895,49.579542 v -5.206826 h -2.140726 v 6.865676 h 0.123668 2.166312 4.486144 v -1.65885 z"
       style="font-size:8.73348px;line-height:1.25;font-family:'UTM Nokia';-inkscape-font-specification:'UTM Nokia';stroke-width:0.265186"
       id="path874" />
    <path
       d="m 26.127664,44.372716 v 4.874204 q 0,0.464819 0.09808,0.788913 0.102345,0.319829 0.383795,0.601279 0.285715,0.260128 0.490405,0.383796 0.204691,0.119403 0.550107,0.183369 0.345416,0.0597 0.955225,0.07676 0.614073,0.01706 1.86354,0.01706 1.257997,0 1.863541,-0.01706 0.605544,-0.01706 0.95096,-0.07676 0.345416,-0.06397 0.541578,-0.179105 0.196162,-0.119403 0.49467,-0.38806 0.28145,-0.28145 0.379531,-0.601279 0.102345,-0.324094 0.102345,-0.788913 V 44.372716 H 32.69483 v 4.575696 q 0,0.204691 -0.170575,0.332623 -0.170576,0.123667 -0.554372,0.123667 H 28.92937 q -0.358209,0 -0.528785,-0.123667 -0.166312,-0.127932 -0.166312,-0.332623 v -4.575696 z"
       style="font-size:8.73348px;line-height:1.25;font-family:'UTM Nokia';-inkscape-font-specification:'UTM Nokia';stroke-width:0.265186"
       id="path876" />
    <path
       d="m 35.543449,48.347132 q 0,0.959489 0,0.997869 0,0.933902 0.545843,1.415779 0.545842,0.477612 1.680171,0.477612 1.773989,0 5.906187,0 v -1.65885 q -5.189768,0 -5.667381,0 -0.315565,0 -0.460554,-0.110874 -0.14499,-0.115139 -0.14499,-0.307036 l -0.02559,-0.541579 v -1.624734 l 0.02559,-0.567164 q 0,-0.157783 0.149254,-0.260128 0.149254,-0.10661 0.45629,-0.10661 0.477613,0 5.667381,0 v -1.688701 q -4.132198,0 -5.906187,0 -1.134329,0 -1.680171,0.481877 -0.545843,0.481877 -0.545843,1.424308 0,0.02559 0,0.985075 z"
       style="font-size:8.73348px;line-height:1.25;font-family:'UTM Nokia';-inkscape-font-specification:'UTM Nokia';stroke-width:0.265186"
       id="path878" />
    <path
       d="m 44.456033,44.372716 v 6.865676 h 2.140726 v -6.865676 z"
       style="font-size:8.73348px;line-height:1.25;font-family:'UTM Nokia';-inkscape-font-specification:'UTM Nokia';stroke-width:0.265186"
       id="path880" />
    <path
       d="m 47.381409,49.464404 q 0,0.422175 0.09382,0.712154 0.09808,0.285714 0.358209,0.520256 0.238807,0.217484 0.507463,0.336887 0.272922,0.119403 0.699361,0.17484 0.42644,0.05544 1.036248,0.0725 0.614073,0.01706 1.79531,0.01706 1.176973,0 1.79531,-0.01706 0.622602,-0.01706 1.044777,-0.0725 0.42644,-0.05544 0.70789,-0.17484 0.285714,-0.119403 0.511727,-0.336887 0.260128,-0.234542 0.353945,-0.520256 0.09808,-0.289979 0.09808,-0.712154 0,-0.993604 0,-2.349682 v -0.993604 q 0,-0.417911 -0.09808,-0.690832 -0.09382,-0.277185 -0.353945,-0.515992 -0.226013,-0.226012 -0.503198,-0.345416 -0.272922,-0.123667 -0.690832,-0.17484 -0.413647,-0.05544 -1.006398,-0.06823 -0.59275,-0.01279 -1.833689,-0.01279 -1.240939,0 -1.837954,0.01279 -0.592751,0.01279 -1.014926,0.06823 -0.422176,0.05117 -0.703626,0.17484 -0.277185,0.119404 -0.507463,0.345416 -0.260128,0.238807 -0.358209,0.515992 -0.09382,0.272921 -0.09382,0.690832 z m 1.93177,-3.044778 q 0,-0.196162 0.140725,-0.307037 0.14499,-0.115138 0.486141,-0.115138 3.432838,0 3.914715,0 0.366738,0 0.498934,0.08955 0.136461,0.08529 0.136461,0.332623 v 1.987208 0.788913 q 0,0.166311 -0.162047,0.277185 -0.162047,0.10661 -0.503199,0.10661 -3.402987,0 -3.884864,0 -0.366737,0 -0.498934,-0.08102 -0.127932,-0.08529 -0.127932,-0.302772 z"
       style="font-size:8.73348px;line-height:1.25;font-family:'UTM Nokia';-inkscape-font-specification:'UTM Nokia';stroke-width:0.265186"
       id="path882" />
    <path
       d="m 59.155402,46.023037 0.02559,0.06397 4.157785,5.125803 h 3.466953 v -6.84009 h -2.017059 v 5.18124 l -0.03411,-0.08955 -4.12367,-5.091688 h -3.492539 v 6.84009 h 2.017058 z"
       style="font-size:8.73348px;line-height:1.25;font-family:'UTM Nokia';-inkscape-font-specification:'UTM Nokia';stroke-width:0.265186"
       id="path884" />
    <path
       d="m 69.70125,49.639244 v -1.134329 h 5.057572 V 47.114722 H 69.70125 v -1.151386 h 5.385931 v -1.59062 h -5.266528 -2.174841 -0.08529 v 6.865676 h 0.149254 2.110875 5.266528 v -1.599148 z"
       style="font-size:8.73348px;line-height:1.25;font-family:'UTM Nokia';-inkscape-font-specification:'UTM Nokia';stroke-width:0.265186"
       id="path886" />
    <path
       d="m 84.016824,47.805554 q -0.383796,-0.643924 -1.343285,-0.699361 -0.183369,-0.01706 -0.464819,-0.02985 -0.277185,-0.01279 -0.686567,-0.02985 -0.405118,-0.01706 -1.454159,-0.05117 -0.759062,-0.02559 -0.916845,-0.03838 -0.05117,0 -0.17484,0 -0.183369,0 -0.183369,0 -0.41791,0 -0.656717,-0.102346 -0.234541,-0.10661 -0.234541,-0.434968 0,-0.187634 0.07249,-0.298508 0.07676,-0.115138 0.200427,-0.170576 0.123667,-0.05544 0.260128,-0.07249 0.140725,-0.02132 0.315565,-0.02132 0.183369,0 5.292114,0 v -1.48401 q -5.168446,0 -6.434972,0 -0.95096,0 -1.364606,0.53305 -0.409382,0.533049 -0.409382,1.599148 0,0.865672 0.298508,1.30064 0.417911,0.584222 1.385928,0.639659 0.191898,0.01706 0.460555,0.02985 0.272921,0.01279 0.579957,0.02559 0.307037,0.01279 1.509596,0.05544 0.771856,0.02559 0.933903,0.03411 0.272921,0 0.460554,0.01706 0.187634,0.01279 0.362474,0.06823 0.17484,0.05544 0.28145,0.183369 0.110874,0.127931 0.110874,0.336887 0,0.183369 -0.08102,0.298507 -0.07676,0.110875 -0.208956,0.170576 -0.127932,0.05544 -0.28145,0.07249 -0.153518,0.01706 -0.336887,0.01706 -0.183369,0 -5.292114,0 V 51.2384 q 4.925376,0 6.20043,0 1.091685,0 1.586355,-0.49467 0.49467,-0.498934 0.49467,-1.611941 0,-0.793178 -0.28145,-1.326227 z"
       style="font-size:8.73348px;line-height:1.25;font-family:'UTM Nokia';-inkscape-font-specification:'UTM Nokia';stroke-width:0.265186"
       id="path888" />
    <path
       d="m 93.624506,44.372716 h -2.055438 v 3.914715 l -0.02559,0.635395 q 0,0.315565 -0.243071,0.486141 -0.24307,0.170575 -0.63113,0.170575 H 88.95073 v 1.684436 q 1.249467,0 1.936035,-0.01706 0.690832,-0.01706 1.117271,-0.07676 0.430704,-0.06397 0.682303,-0.179105 0.255864,-0.119403 0.447762,-0.328358 0.268657,-0.264393 0.379531,-0.567165 0.110874,-0.307036 0.110874,-0.724947 z"
       style="font-size:8.73348px;line-height:1.25;font-family:'UTM Nokia';-inkscape-font-specification:'UTM Nokia';stroke-width:0.265186"
       id="path890" />
    <path
       d="m 94.375038,44.372716 v 4.874204 q 0,0.464819 0.09808,0.788913 0.102346,0.319829 0.383796,0.601279 0.285714,0.260128 0.490405,0.383796 0.204691,0.119403 0.550107,0.183369 0.345416,0.0597 0.955224,0.07676 0.614073,0.01706 1.863541,0.01706 1.257996,0 1.863539,-0.01706 0.60555,-0.01706 0.95096,-0.07676 0.34542,-0.06397 0.54158,-0.179105 0.19616,-0.119403 0.49467,-0.38806 0.28145,-0.28145 0.37953,-0.601279 0.10235,-0.324094 0.10235,-0.788913 v -4.874204 h -2.10661 v 4.575696 q 0,0.204691 -0.17058,0.332623 -0.17058,0.123667 -0.55437,0.123667 h -3.040516 q -0.358209,0 -0.528785,-0.123667 -0.166311,-0.127932 -0.166311,-0.332623 v -4.575696 z"
       style="font-size:8.73348px;line-height:1.25;font-family:'UTM Nokia';-inkscape-font-specification:'UTM Nokia';stroke-width:0.265186"
       id="path892" />
    <path
       d="m 109.30042,47.498518 h -3.07463 l 4.1322,3.739874 h 2.37527 l -2.80171,-2.43497 v -0.03838 q 0.60981,0 1.01493,-0.119403 0.40938,-0.123668 0.65245,-0.383796 0.24307,-0.264392 0.35821,-0.690832 0.11514,-0.430703 0.11514,-1.05757 0,-0.626866 -0.14499,-1.036247 -0.14499,-0.413647 -0.45203,-0.652453 -0.30277,-0.24307 -0.78464,-0.345416 -0.48188,-0.10661 -1.20683,-0.10661 h -5.69297 v 6.865676 h 2.14073 v -5.151389 h 3.39446 q 0.31556,0 0.55011,0.196162 0.2388,0.196162 0.2388,0.503199 0,0.345416 -0.24733,0.528785 -0.24307,0.183369 -0.56717,0.18337 z"
       style="font-size:8.73348px;line-height:1.25;font-family:'UTM Nokia';-inkscape-font-specification:'UTM Nokia';stroke-width:0.265186"
       id="path894" />
    <path
       d="m 113.24925,44.372716 v 6.865676 h 2.14073 v -6.865676 z"
       style="font-size:8.73348px;line-height:1.25;font-family:'UTM Nokia';-inkscape-font-specification:'UTM Nokia';stroke-width:0.265186"
       id="path896" />
    <path
       d="m 118.28123,51.238392 h 4.5757 q 1.13433,0 1.68443,-0.473348 0.55011,-0.477612 0.55011,-1.394457 0,-0.02559 0,-0.997868 v -1.142858 q 0,-0.959489 0,-0.985075 0,-0.916845 -0.55011,-1.394457 -0.5501,-0.477613 -1.68443,-0.477613 -1.77399,0 -6.68231,0 v 6.865676 h 0.0597 z m -0.11514,-1.624735 v -3.59062 h 0.0256 q 3.94883,0 4.42644,0 0.31557,0 0.46056,0.110874 0.14499,0.110875 0.14499,0.285715 v 0.537314 0.8742 0.8145 0.575693 q 0,0.17484 -0.14499,0.285715 -0.14499,0.106609 -0.46056,0.106609 h -4.42644 z"
       style="font-size:8.73348px;line-height:1.25;font-family:'UTM Nokia';-inkscape-font-specification:'UTM Nokia';stroke-width:0.265186"
       id="path898" />
    <path
       d="m 125.87185,44.372716 v 6.865676 h 2.14073 v -6.865676 z"
       style="font-size:8.73348px;line-height:1.25;font-family:'UTM Nokia';-inkscape-font-specification:'UTM Nokia';stroke-width:0.265186"
       id="path900" />
    <path
       d="m 128.79723,48.347132 q 0,0.959489 0,0.997869 0,0.933902 0.54584,1.415779 0.54584,0.477612 1.68017,0.477612 1.77399,0 5.90619,0 v -1.65885 q -5.18977,0 -5.66738,0 -0.31557,0 -0.46056,-0.110874 -0.14499,-0.115139 -0.14499,-0.307036 l -0.0256,-0.541579 v -1.624734 l 0.0256,-0.567164 q 0,-0.157783 0.14926,-0.260128 0.14925,-0.10661 0.45629,-0.10661 0.47761,0 5.66738,0 v -1.688701 q -4.1322,0 -5.90619,0 -1.13433,0 -1.68017,0.481877 -0.54584,0.481877 -0.54584,1.424308 0,0.02559 0,0.985075 z"
       style="font-size:8.73348px;line-height:1.25;font-family:'UTM Nokia';-inkscape-font-specification:'UTM Nokia';stroke-width:0.265186"
       id="path902" />
    <path
       d="m 144.68637,50.069948 0.62687,1.168444 h 2.37526 l -3.72708,-6.865676 h -2.742 l -3.76546,6.865676 h 2.37527 l 0.63965,-1.168444 z m -2.11514,-3.94883 1.32623,2.469085 H 141.245 Z"
       style="font-size:8.73348px;line-height:1.25;font-family:'UTM Nokia';-inkscape-font-specification:'UTM Nokia';stroke-width:0.265186"
       id="path904" />
    <path
       d="m 156.40919,47.805554 q -0.3838,-0.643924 -1.34329,-0.699361 -0.18337,-0.01706 -0.46482,-0.02985 -0.27718,-0.01279 -0.68656,-0.02985 -0.40512,-0.01706 -1.45416,-0.05117 -0.75906,-0.02559 -0.91685,-0.03838 -0.0512,0 -0.17484,0 -0.18337,0 -0.18337,0 -0.41791,0 -0.65671,-0.102346 -0.23454,-0.10661 -0.23454,-0.434968 0,-0.187634 0.0725,-0.298508 0.0768,-0.115138 0.20043,-0.170576 0.12366,-0.05544 0.26013,-0.07249 0.14072,-0.02132 0.31556,-0.02132 0.18337,0 5.29211,0 v -1.48401 q -5.16844,0 -6.43497,0 -0.95096,0 -1.3646,0.53305 -0.40939,0.533049 -0.40939,1.599148 0,0.865672 0.29851,1.30064 0.41791,0.584222 1.38593,0.639659 0.1919,0.01706 0.46056,0.02985 0.27292,0.01279 0.57995,0.02559 0.30704,0.01279 1.5096,0.05544 0.77185,0.02559 0.9339,0.03411 0.27292,0 0.46056,0.01706 0.18763,0.01279 0.36247,0.06823 0.17484,0.05544 0.28145,0.183369 0.11087,0.127931 0.11087,0.336887 0,0.183369 -0.081,0.298507 -0.0768,0.110875 -0.20896,0.170576 -0.12793,0.05544 -0.28145,0.07249 -0.15351,0.01706 -0.33688,0.01706 -0.18337,0 -5.29212,0 V 51.2384 q 4.92538,0 6.20043,0 1.09169,0 1.58636,-0.49467 0.49467,-0.498934 0.49467,-1.611941 0,-0.793178 -0.28145,-1.326227 z"
       style="font-size:8.73348px;line-height:1.25;font-family:'UTM Nokia';-inkscape-font-specification:'UTM Nokia';stroke-width:0.265186"
       id="path906" />
    <path
       d="m 169.90173,47.805554 q -0.3838,-0.643924 -1.34329,-0.699361 -0.18337,-0.01706 -0.46482,-0.02985 -0.27718,-0.01279 -0.68656,-0.02985 -0.40512,-0.01706 -1.45416,-0.05117 -0.75907,-0.02559 -0.91685,-0.03838 -0.0512,0 -0.17484,0 -0.18337,0 -0.18337,0 -0.41791,0 -0.65671,-0.102346 -0.23455,-0.10661 -0.23455,-0.434968 0,-0.187634 0.0725,-0.298508 0.0768,-0.115138 0.20043,-0.170576 0.12366,-0.05544 0.26012,-0.07249 0.14073,-0.02132 0.31557,-0.02132 0.18337,0 5.29211,0 v -1.48401 q -5.16844,0 -6.43497,0 -0.95096,0 -1.3646,0.53305 -0.40939,0.533049 -0.40939,1.599148 0,0.865672 0.29851,1.30064 0.41791,0.584222 1.38593,0.639659 0.1919,0.01706 0.46055,0.02985 0.27293,0.01279 0.57996,0.02559 0.30704,0.01279 1.5096,0.05544 0.77185,0.02559 0.9339,0.03411 0.27292,0 0.46055,0.01706 0.18764,0.01279 0.36248,0.06823 0.17484,0.05544 0.28145,0.183369 0.11087,0.127931 0.11087,0.336887 0,0.183369 -0.081,0.298507 -0.0768,0.110875 -0.20896,0.170576 -0.12793,0.05544 -0.28145,0.07249 -0.15351,0.01706 -0.33688,0.01706 -0.18337,0 -5.29212,0 V 51.2384 q 4.92538,0 6.20043,0 1.09169,0 1.58636,-0.49467 0.49467,-0.498934 0.49467,-1.611941 0,-0.793178 -0.28145,-1.326227 z"
       style="font-size:8.73348px;line-height:1.25;font-family:'UTM Nokia';-inkscape-font-specification:'UTM Nokia';stroke-width:0.265186"
       id="path908" />
    <path
       d="m 172.83563,51.238392 v -1.83369 h -1.99147 v 1.83369 z"
       style="font-size:8.73348px;line-height:1.25;font-family:'UTM Nokia';-inkscape-font-specification:'UTM Nokia';stroke-width:0.265186"
       id="path910" />
    <path
       d="m 180.59257,50.069948 0.62687,1.168444 h 2.37527 l -3.72708,-6.865676 h -2.74201 l -3.76546,6.865676 h 2.37527 l 0.63966,-1.168444 z m -2.11513,-3.94883 1.32622,2.469085 h -2.65245 z"
       style="font-size:8.73348px;line-height:1.25;font-family:'UTM Nokia';-inkscape-font-specification:'UTM Nokia';stroke-width:0.265186"
       id="path912" />
    <path
       d="m 186.12349,51.238392 v -1.83369 h -1.99147 v 1.83369 z"
       style="font-size:8.73348px;line-height:1.25;font-family:'UTM Nokia';-inkscape-font-specification:'UTM Nokia';stroke-width:0.265186"
       id="path914" />
    <path
       d="m 195.06167,47.805554 q -0.3838,-0.643924 -1.34329,-0.699361 -0.18336,-0.01706 -0.46481,-0.02985 -0.27719,-0.01279 -0.68657,-0.02985 -0.40512,-0.01706 -1.45416,-0.05117 -0.75906,-0.02559 -0.91685,-0.03838 -0.0512,0 -0.17484,0 -0.18336,0 -0.18336,0 -0.41791,0 -0.65672,-0.102346 -0.23454,-0.10661 -0.23454,-0.434968 0,-0.187634 0.0725,-0.298508 0.0768,-0.115138 0.20043,-0.170576 0.12367,-0.05544 0.26013,-0.07249 0.14072,-0.02132 0.31556,-0.02132 0.18337,0 5.29212,0 v -1.48401 q -5.16845,0 -6.43498,0 -0.95096,0 -1.3646,0.53305 -0.40938,0.533049 -0.40938,1.599148 0,0.865672 0.2985,1.30064 0.41791,0.584222 1.38593,0.639659 0.1919,0.01706 0.46056,0.02985 0.27292,0.01279 0.57995,0.02559 0.30704,0.01279 1.5096,0.05544 0.77186,0.02559 0.9339,0.03411 0.27292,0 0.46056,0.01706 0.18763,0.01279 0.36247,0.06823 0.17484,0.05544 0.28145,0.183369 0.11087,0.127931 0.11087,0.336887 0,0.183369 -0.081,0.298507 -0.0768,0.110875 -0.20895,0.170576 -0.12794,0.05544 -0.28145,0.07249 -0.15352,0.01706 -0.33689,0.01706 -0.18337,0 -5.29212,0 V 51.2384 q 4.92538,0 6.20043,0 1.09169,0 1.58636,-0.49467 0.49467,-0.498934 0.49467,-1.611941 0,-0.793178 -0.28145,-1.326227 z"
       style="font-size:8.73348px;line-height:1.25;font-family:'UTM Nokia';-inkscape-font-specification:'UTM Nokia';stroke-width:0.265186"
       id="path916" />
    <path
       d="m 197.99556,51.238392 v -1.83369 h -1.99147 v 1.83369 z"
       style="font-size:8.73348px;line-height:1.25;font-family:'UTM Nokia';-inkscape-font-specification:'UTM Nokia';stroke-width:0.265186"
       id="path918" />
  </g>
</svg>
